<mxfile host="app.diagrams.net" modified="2021-01-31T10:31:32.081Z" agent="5.0 (Windows)" etag="6_GlflUcg0P4GXH-mCcA" version="14.2.9" type="github">
  <diagram id="6hPn4Aj7LjHKTzrVKzyb" name="Page-1">
    <mxGraphModel dx="1865" dy="547" grid="1" gridSize="10" guides="1" tooltips="1" connect="1" arrows="1" fold="1" page="1" pageScale="1" pageWidth="827" pageHeight="1169" math="0" shadow="0">
      <root>
        <mxCell id="0" />
        <mxCell id="1" parent="0" />
        <mxCell id="63WguMnm6Ir-i0p5jmBB-3" style="edgeStyle=orthogonalEdgeStyle;rounded=0;orthogonalLoop=1;jettySize=auto;html=1;exitX=1;exitY=0.5;exitDx=0;exitDy=0;entryX=0;entryY=0.5;entryDx=0;entryDy=0;" parent="1" source="63WguMnm6Ir-i0p5jmBB-1" target="63WguMnm6Ir-i0p5jmBB-2" edge="1">
          <mxGeometry relative="1" as="geometry" />
        </mxCell>
        <mxCell id="63WguMnm6Ir-i0p5jmBB-1" value="Client" style="rounded=0;whiteSpace=wrap;html=1;" parent="1" vertex="1">
          <mxGeometry x="40" y="76" width="120" height="60" as="geometry" />
        </mxCell>
        <mxCell id="63WguMnm6Ir-i0p5jmBB-6" style="edgeStyle=orthogonalEdgeStyle;rounded=0;orthogonalLoop=1;jettySize=auto;html=1;exitX=0.5;exitY=1;exitDx=0;exitDy=0;entryX=0.5;entryY=1;entryDx=0;entryDy=0;" parent="1" source="63WguMnm6Ir-i0p5jmBB-2" target="63WguMnm6Ir-i0p5jmBB-1" edge="1">
          <mxGeometry relative="1" as="geometry" />
        </mxCell>
        <mxCell id="63WguMnm6Ir-i0p5jmBB-9" value="" style="edgeStyle=orthogonalEdgeStyle;rounded=0;orthogonalLoop=1;jettySize=auto;html=1;" parent="1" source="63WguMnm6Ir-i0p5jmBB-2" target="63WguMnm6Ir-i0p5jmBB-8" edge="1">
          <mxGeometry relative="1" as="geometry" />
        </mxCell>
        <mxCell id="63WguMnm6Ir-i0p5jmBB-2" value="App Engine Tracking Server" style="rounded=0;whiteSpace=wrap;html=1;" parent="1" vertex="1">
          <mxGeometry x="230" y="76" width="120" height="60" as="geometry" />
        </mxCell>
        <mxCell id="63WguMnm6Ir-i0p5jmBB-4" value="&#39;GET&#39; Request; analog Analytics --&amp;gt; Daten müssen in Parametern enthalten sein" style="text;html=1;strokeColor=none;fillColor=none;align=center;verticalAlign=middle;whiteSpace=wrap;rounded=0;" parent="1" vertex="1">
          <mxGeometry x="110" y="26" width="160" height="20" as="geometry" />
        </mxCell>
        <mxCell id="63WguMnm6Ir-i0p5jmBB-7" value="Sends back Transparent 1x1 gif" style="text;html=1;strokeColor=none;fillColor=none;align=center;verticalAlign=middle;whiteSpace=wrap;rounded=0;" parent="1" vertex="1">
          <mxGeometry x="140" y="166" width="110" height="20" as="geometry" />
        </mxCell>
        <mxCell id="63WguMnm6Ir-i0p5jmBB-12" value="" style="edgeStyle=orthogonalEdgeStyle;rounded=0;orthogonalLoop=1;jettySize=auto;html=1;" parent="1" source="63WguMnm6Ir-i0p5jmBB-8" target="63WguMnm6Ir-i0p5jmBB-11" edge="1">
          <mxGeometry relative="1" as="geometry" />
        </mxCell>
        <mxCell id="63WguMnm6Ir-i0p5jmBB-8" value="Request gets logged in Google Cloud Logging" style="whiteSpace=wrap;html=1;rounded=0;" parent="1" vertex="1">
          <mxGeometry x="430" y="76" width="120" height="60" as="geometry" />
        </mxCell>
        <mxCell id="63WguMnm6Ir-i0p5jmBB-14" value="" style="edgeStyle=orthogonalEdgeStyle;rounded=0;orthogonalLoop=1;jettySize=auto;html=1;" parent="1" source="63WguMnm6Ir-i0p5jmBB-11" target="63WguMnm6Ir-i0p5jmBB-13" edge="1">
          <mxGeometry relative="1" as="geometry" />
        </mxCell>
        <mxCell id="63WguMnm6Ir-i0p5jmBB-11" value="Log Sink groups all requests to tracking server" style="whiteSpace=wrap;html=1;rounded=0;" parent="1" vertex="1">
          <mxGeometry x="630" y="76" width="120" height="60" as="geometry" />
        </mxCell>
        <mxCell id="63WguMnm6Ir-i0p5jmBB-16" value="" style="edgeStyle=orthogonalEdgeStyle;rounded=0;orthogonalLoop=1;jettySize=auto;html=1;" parent="1" source="63WguMnm6Ir-i0p5jmBB-13" target="63WguMnm6Ir-i0p5jmBB-15" edge="1">
          <mxGeometry relative="1" as="geometry" />
        </mxCell>
        <mxCell id="63WguMnm6Ir-i0p5jmBB-13" value="Log Sink is stored in a Big Query table" style="whiteSpace=wrap;html=1;rounded=0;" parent="1" vertex="1">
          <mxGeometry x="630" y="216" width="120" height="60" as="geometry" />
        </mxCell>
        <mxCell id="63WguMnm6Ir-i0p5jmBB-15" value="Params of request get pushed to columns via SQL " style="whiteSpace=wrap;html=1;rounded=0;" parent="1" vertex="1">
          <mxGeometry x="630" y="356" width="120" height="60" as="geometry" />
        </mxCell>
        <mxCell id="63WguMnm6Ir-i0p5jmBB-17" value="&lt;div&gt;&lt;b&gt;Problems:&lt;/b&gt;&lt;br&gt;&lt;/div&gt;&lt;div&gt;- Data Manipulation via SQL is dirty / prone to errors&lt;/div&gt;&lt;div&gt;- no knowledge about scalability of logs&lt;/div&gt;&lt;div&gt;- SQL the right language for data manipulation?&lt;br&gt;&lt;/div&gt;&lt;div&gt;JSON - Data would be better suited for Big Query Schema&lt;br&gt;&lt;/div&gt;" style="text;html=1;strokeColor=none;fillColor=none;align=left;verticalAlign=middle;whiteSpace=wrap;rounded=0;" parent="1" vertex="1">
          <mxGeometry x="300" y="240" width="250" height="20" as="geometry" />
        </mxCell>
        <mxCell id="CatTdBDHPxQYalYGXHAe-1" value="Möglichkeit zur Optimierung: in GCS zwischenspeichern und dann mit dataflow bearbeiten" style="text;html=1;strokeColor=none;fillColor=none;align=center;verticalAlign=middle;whiteSpace=wrap;rounded=0;" vertex="1" parent="1">
          <mxGeometry x="-40" y="336" width="220" height="20" as="geometry" />
        </mxCell>
      </root>
    </mxGraphModel>
  </diagram>
</mxfile>
